<svg width="32" height="40" xmlns="http://www.w3.org/2000/svg"><g fill="none" fill-rule="evenodd"><path d="M27.97 28.719l-.02.16C27.575 35.739 22.18 40 13.874 40c-1.647 0-3.28-.203-4.854-.601l.749-1.602a18.34 18.34 0 0 0 4.105.465c7.612 0 12.34-3.883 12.34-10.129 0-6.25-4.648-8.367-11.219-10.684C11.86 16.317 7.56 14.77 7.56 10.91c0-3.277 2.625-5.402 6.682-5.412l2.63-.004V7.23l-2.622.006c-3.092.006-4.935 1.381-4.935 3.674 0 2.235 2.114 3.407 6.28 4.907 1.193.421 2.748.984 4.176 1.616l2.088 1.024c1.775.973 3.063 2.008 4.065 3.266.02.027 2.09 2.207 2.047 6.996zM2.853 11.359c0 6.231 4.235 8.192 11.209 10.684 3.598 1.239 7.437 2.875 7.437 6.594 0 3.614-2.9 5.863-7.565 5.863-.862 0-1.711-.074-2.53-.223l.762-1.636c.571.086 1.17.125 1.768.125 1.747 0 5.809-.403 5.809-4.13 0-2.327-2.398-3.624-6.264-4.956C6.23 21.09 1.1 18.695 1.1 11.36 1.101 4.708 6.505.04 14.241.003h2.63v1.734l-2.622.002c-6.71.03-11.396 3.987-11.396 9.62z" fill="#EE2D48"/><path d="M27.937 18.619V7.139H32V0L20.073.002v1.716l10.193-.002v3.709h-4.062v11.862c.283.142 1.118.602 1.733 1.332zm-7.857-4.07l1.734.642V5.42l-1.734.004v9.124zM7.754 32.385l-.61-.428.336-.653c.29-.58.41-1.116.41-1.837 0-1.324-1.207-2.745-3.161-2.745-1.85 0-2.997 1.324-2.997 3.466 0 2.398 1.97 4.699 5.278 6.177l-.725 1.556C2.404 36.168 0 33.21 0 30.188c0-3.053 1.943-5.18 4.729-5.18 3.022 0 4.894 2.312 4.894 4.459a5.77 5.77 0 0 1-.245 1.744l-.008.074-.748 1.613a7.543 7.543 0 0 1-.868-.513z" fill="#2E2E32"/></g></svg>